<svg version="1.2" xmlns="http://www.w3.org/2000/svg" viewBox="0 0 64 64" width="64" height="64">
	<title>edit-svg</title>
	<style>
		.s0 { fill: #ffffff } 
	</style>
	<path id="Layer" class="s0" d="m55.7 16.9l-3.5 3.5-7.6-7.6 3.5-3.5c0.4-0.5 1-0.7 1.6-0.7 0.6 0 1.2 0.2 1.7 0.7l4.3 4.3c0.9 0.9 0.9 2.4 0 3.3zm-12.7-2.5l7.6 7.6-21 21-7.7-7.6zm-15 30.3l-9.3 1.6 1.6-9.3zm13.5-10.6l5-5v23.1c0 1.8-1.4 3.3-3.2 3.3h-32.4c-1.7 0-3.2-1.5-3.2-3.3v-32.3c0-1.8 1.5-3.2 3.2-3.2h27.1l-5 5h-20.3v28.8h28.8z"/>
</svg>